HIERARCHY
ROOT RootJoint
{
    OFFSET   0.000000   0.000000   0.000000
    CHANNELS 6 Xposition Yposition Zposition Xrotation Yrotation Zrotation
    JOINT pelvis_lowerback
    {
        OFFSET   0.000000   0.093605   0.000000
        CHANNELS 3 Xrotation Yrotation Zrotation
        JOINT lowerback_torso
        {
            OFFSET   0.000000   0.100000   0.000000
            CHANNELS 3 Xrotation Yrotation Zrotation
            JOINT torso_head
            {
                OFFSET   0.000000   0.282350   0.000000
                CHANNELS 3 Xrotation Yrotation Zrotation
                End Site
                {
                    OFFSET   0.000000   0.192650   0.000000
                }
            }
            JOINT rTorso_Clavicle
            {
                OFFSET  -0.001000   0.157500   0.000000
                CHANNELS 3 Xrotation Yrotation Zrotation
                JOINT rShoulder
                {
                    OFFSET  -0.117647   0.000000   0.000000
                    CHANNELS 3 Xrotation Yrotation Zrotation
                    JOINT rElbow
                    {
                        OFFSET  -0.245000   0.000000   0.000000
                        CHANNELS 3 Xrotation Yrotation Zrotation
                        JOINT rWrist
                        {
                            OFFSET  -0.240000   0.000000   0.000000
                            CHANNELS 3 Xrotation Yrotation Zrotation
                            End Site
                            {
                                OFFSET  -0.116353  -0.002500   0.000000
                            }
                        }
                    }
                }
            }
            JOINT lTorso_Clavicle
            {
                OFFSET   0.001000   0.157500   0.000000
                CHANNELS 3 Xrotation Yrotation Zrotation
                JOINT lShoulder
                {
                    OFFSET   0.117647   0.000000   0.000000
                    CHANNELS 3 Xrotation Yrotation Zrotation
                    JOINT lElbow
                    {
                        OFFSET   0.245000   0.000000   0.000000
                        CHANNELS 3 Xrotation Yrotation Zrotation
                        JOINT lWrist
                        {
                            OFFSET   0.240000   0.000000   0.000000
                            CHANNELS 3 Xrotation Yrotation Zrotation
                            End Site
                            {
                                OFFSET   0.116353  -0.002500   0.000000
                            }
                        }
                    }
                }
            }
        }
    }
    JOINT rHip
    {
        OFFSET  -0.100000  -0.051395   0.000000
        CHANNELS 3 Xrotation Yrotation Zrotation
        JOINT rKnee
        {
            OFFSET   0.000000  -0.410000   0.000000
            CHANNELS 3 Xrotation Yrotation Zrotation
            JOINT rAnkle
            {
                OFFSET   0.000000  -0.390000   0.000000
                CHANNELS 3 Xrotation Yrotation Zrotation
                JOINT rToeJoint
                {
                    OFFSET   0.000000  -0.050000   0.130000
                    CHANNELS 3 Xrotation Yrotation Zrotation
                    End Site
                    {
                        OFFSET  -0.010000   0.002000   0.060000
                    }
                }
            }
        }
    }
    JOINT lHip
    {
        OFFSET   0.100000  -0.051395   0.000000
        CHANNELS 3 Xrotation Yrotation Zrotation
        JOINT lKnee
        {
            OFFSET   0.000000  -0.410000   0.000000
            CHANNELS 3 Xrotation Yrotation Zrotation
            JOINT lAnkle
            {
                OFFSET   0.000000  -0.390000   0.000000
                CHANNELS 3 Xrotation Yrotation Zrotation
                JOINT lToeJoint
                {
                    OFFSET   0.000000  -0.050000   0.130000
                    CHANNELS 3 Xrotation Yrotation Zrotation
                    End Site
                    {
                        OFFSET   0.010000   0.002000   0.060000
                    }
                }
            }
        }
    }
}
MOTION
Frames: 12
Frame Time:   0.008333
 -1.664624   0.896355   3.766068  -4.879704 -19.206695   2.839800   5.891550   3.538760  -0.359143  -4.426199   0.964769   1.978619  -0.821602   2.452390  -0.308120  -3.542411  11.076076  -8.505670  -4.410679  37.098598  23.076336 -179.999996  82.908769 179.999915 -10.353438   9.640059   2.933162  -6.472411  -1.218147  11.095426 -31.291770   8.823545 -13.856350   0.000098 -52.104047   0.000092 -16.489003  -9.385985  12.973984  10.349454   1.551924  -6.108492  17.594118   0.000603   0.000166 -23.003785  -0.169117  -0.409474  -0.345348  -0.000331  -0.000135 -15.358961   0.316481   4.693943  19.239972   0.001213   0.000280  -4.025256   5.879206  -4.036673   0.896866   0.000027   0.000051
 -1.665219   0.896810   3.764475  -4.969855 -19.273901   2.814848   5.946811   3.519629  -0.306454  -4.479084   1.001687   1.988431  -0.800210   2.385773  -0.293795  -3.585179  11.130021  -8.544546  -4.353418  37.188381  23.009733 -179.999957  82.865897 179.999846 -10.346225   9.646364   2.893766  -6.475597  -1.172911  11.060143 -31.256508   8.857355 -13.836574   0.000096 -52.087090   0.000089 -16.491521  -9.395625  13.046231  10.356416   1.559824  -6.061458  17.532216   0.000524   0.000155 -22.851588  -0.099452  -0.404526  -0.371700  -0.000251  -0.000109 -15.096475   0.274060   4.791452  19.054928   0.001164   0.000363  -3.997623   5.807651  -4.139920   0.860416   0.000026   0.000092
 -1.665778   0.897219   3.762997  -5.053699 -19.343209   2.786818   5.993655   3.500681  -0.252942  -4.529949   1.037405   2.000191  -0.780591   2.322855  -0.278713  -3.622946  11.183399  -8.577014  -4.300614  37.277237  22.951461 -179.999910  82.821242 179.999778 -10.339856   9.652060   2.858653  -6.478134  -1.129944  11.023796 -31.222937   8.890949 -13.819296   0.000093 -52.070076   0.000087 -16.494837  -9.399739  13.118541  10.360093   1.569241  -6.014166  17.479061   0.000453   0.000144 -22.711928  -0.030977  -0.397444  -0.395173  -0.000189  -0.000087 -14.838429   0.232642   4.885508  18.884450   0.001097   0.000423  -3.971528   5.740222  -4.236335   0.829795   0.000024   0.000117
 -1.666301   0.897588   3.761627  -5.130284 -19.408124   2.757386   6.033813   3.481412  -0.200177  -4.579712   1.069763   2.013094  -0.762983   2.263973  -0.264079  -3.656854  11.233650  -8.605497  -4.250906  37.361387  22.898459 -179.999870  82.778543 179.999726 -10.334158   9.657272   2.826931  -6.480234  -1.090275  10.987806 -31.191179   8.922716 -13.804606   0.000089 -52.054041   0.000084 -16.498553  -9.401764  13.187208  10.361572   1.578291  -5.966400  17.431102   0.000391   0.000133 -22.583149   0.033569  -0.390005  -0.416026  -0.000141  -0.000070 -14.590166   0.194576   4.973531  18.728290   0.001014   0.000454  -3.947087   5.677189  -4.326270   0.802420   0.000022   0.000130
 -1.666785   0.897919   3.760358  -5.199512 -19.467674   2.727268   6.068731   3.462084  -0.148931  -4.628123   1.098660   2.026423  -0.747141   2.208984  -0.250129  -3.687765  11.280178  -8.631198  -4.204009  37.440028  22.849461 -179.999842  82.738425 179.999694 -10.328899   9.662196   2.797358  -6.482034  -1.053811  10.953030 -31.161318   8.952366 -13.791848   0.000083 -52.039112   0.000080 -16.502291  -9.403340  13.251964  10.361145   1.586452  -5.918565  17.386942   0.000337   0.000121 -22.464138   0.093628  -0.382422  -0.434616  -0.000104  -0.000056 -14.353207   0.160036   5.054792  18.584742   0.000923   0.000462  -3.924229   5.618309  -4.410175   0.777736   0.000019   0.000134
 -1.667231   0.898218   3.759188  -5.261522 -19.522163   2.696710   6.099543   3.442971  -0.099623  -4.674816   1.124466   2.039783  -0.732772   2.157661  -0.236934  -3.716220  11.323057  -8.654755  -4.159823  37.513211  22.803836 -179.999828  82.700914 179.999680 -10.323944   9.666940   2.769224  -6.483641  -1.020230  10.919915 -31.133353   8.979934 -13.780519   0.000077 -52.025255   0.000075 -16.505900  -9.405027  13.313271  10.359010   1.593768  -5.870962  17.345728   0.000291   0.000110 -22.354055   0.149412  -0.374819  -0.451212  -0.000077  -0.000045 -14.128133   0.128779   5.129317  18.452416   0.000829   0.000455  -3.902872   5.563318  -4.488463   0.755389   0.000015   0.000132
 -1.667639   0.898486   3.758113  -5.316546 -19.572153   2.665765   6.127142   3.424301  -0.052497  -4.719485   1.147609   2.052946  -0.719642   2.109770  -0.224505  -3.742553  11.362557  -8.676527  -4.118257  37.581233  22.761220 -179.999826  82.665900 179.999682 -10.319222   9.671547   2.742196  -6.485122  -0.989230  10.888664 -31.107230   9.005534 -13.770283   0.000070 -52.012400   0.000070 -16.509331  -9.406982  13.371587  10.355380   1.600404  -5.823796  17.306848   0.000251   0.000099 -22.252244   0.201296  -0.367250  -0.466034  -0.000055  -0.000036 -13.915144   0.100491   5.197392  18.330182   0.000737   0.000437  -3.882929   5.511960  -4.561514   0.735109   0.000012   0.000127
 -1.667988   0.898707   3.757149  -5.368151 -19.627121   2.647922   6.149595   3.401832  -0.013533  -4.756838   1.168066   2.059418  -0.708068   2.083525  -0.213059  -3.770624  11.396494  -8.686706  -4.085789  37.676004  22.698994 -179.999795  82.603523 179.999625 -10.321718   9.668606   2.757675  -6.484273  -0.982473  10.842378 -31.089313   9.040839 -13.704200   0.000075 -51.989834   0.000073 -16.523036  -9.392318  13.400230  10.334984   1.607222  -5.797087  17.309995   0.000199   0.000078 -22.178786   0.256534  -0.350712  -0.480218  -0.000039  -0.000029 -13.713524   0.078523   5.251628  18.231588   0.000646   0.000410  -3.875663   5.454867  -4.628998   0.704838   0.000009   0.000135
 -1.668290   0.898892   3.756302  -5.417359 -19.677530   2.631841   6.168003   3.378130   0.024365  -4.793199   1.185847   2.065502  -0.696563   2.059349  -0.202373  -3.798986  11.430640  -8.697042  -4.058015  37.769074  22.641032 -179.999755  82.539977 179.999563 -10.325259   9.664614   2.779213  -6.484030  -0.978568  10.800885 -31.073867   9.072488 -13.640763   0.000078 -51.968331   0.000075 -16.536916  -9.373653  13.429760  10.316971   1.613181  -5.775580  17.320548   0.000156   0.000059 -22.118040   0.307119  -0.333280  -0.492918  -0.000026  -0.000023 -13.520949   0.058368   5.302787  18.143522   0.000565   0.000378  -3.868882   5.401388  -4.692011   0.676472   0.000008   0.000137
 -1.668548   0.899048   3.755568  -5.462411 -19.723251   2.616470   6.182141   3.354849   0.061721  -4.829618   1.201383   2.072365  -0.686031   2.036727  -0.192328  -3.826259  11.463520  -8.707077  -4.032908  37.857151  22.586834 -179.999715  82.479568 179.999510 -10.328668   9.660799   2.799892  -6.483977  -0.976623  10.763142 -31.059943   9.100630 -13.581493   0.000080 -51.948768   0.000076 -16.549922  -9.357198  13.458151  10.302034   1.618069  -5.757428  17.332381   0.000121   0.000044 -22.066413   0.353300  -0.315848  -0.504103  -0.000017  -0.000018 -13.339114   0.039932   5.352379  18.062727   0.000494   0.000344  -3.862507   5.351483  -4.750801   0.650751   0.000007   0.000133
 -1.668759   0.899178   3.754943  -5.502836 -19.764999   2.601692   6.192807   3.332491   0.098436  -4.865941   1.215109   2.080074  -0.676602   2.015612  -0.182855  -3.852164  11.494546  -8.716636  -4.009812  37.939692  22.536081 -179.999683  82.422879 179.999472 -10.331772   9.657335   2.818708  -6.484079  -0.975882  10.728623 -31.047296   9.125934 -13.526111   0.000079 -51.930941   0.000075 -16.561932  -9.343604  13.485130  10.289947   1.622125  -5.742462  17.343921   0.000094   0.000032 -22.022601   0.395607  -0.298633  -0.513810  -0.000011  -0.000015 -13.168575   0.023024   5.400477  17.987933   0.000432   0.000310  -3.856548   5.304929  -4.805648   0.627356   0.000007   0.000127
 -1.668925   0.899285   3.754422  -5.538589 -19.803445   2.587411   6.200832   3.311248   0.134389  -4.901736   1.227376   2.088520  -0.668160   1.995916  -0.173915  -3.876640  11.523553  -8.725690  -3.988404  38.016775  22.488530 -179.999661  82.369858 179.999451 -10.334576   9.654213   2.835700  -6.484335  -0.975818  10.697015 -31.035784   9.148918 -13.474258   0.000076 -51.914609   0.000072 -16.573060  -9.332385  13.511023  10.280499   1.625607  -5.730660  17.354592   0.000072   0.000022 -21.985880   0.434495  -0.281708  -0.522093  -0.000007  -0.000012 -13.009424   0.007452   5.447021  17.918381   0.000377   0.000278  -3.850992   5.261502  -4.856816   0.606025   0.000006   0.000118
